<?xml version="1.0" encoding="UTF-8"?>
<svg id="Layer_2" data-name="Layer 2" xmlns="http://www.w3.org/2000/svg" viewBox="0 0 1080 1088.69">
  <g id="Layer_1-2" data-name="Layer 1">
    <g>
      <path d="M544.13,16.89l-4.13-8.31h0v-.05h0l.05-.11h-.11c-1.3-2.6-2.6-5.2-3.95-7.8l-.06-.12-.27-.49,4.31,8.59L.14,1088.25h-.14v.28h0s0,0,0,0l.08-.12.09-.15H.17L539.98,8.62h0L.17,1088.25c351.9-64.68,618.49-372.96,618.49-743.56,0-117.37-26.73-228.47-74.42-327.59l-.11-.22Z"/>
      <path d="M1080,1088.69l-.05-.17-387.54-774.96h0c-36.96,73.1-57.8,155.82-57.8,243.32,0,149.11,60.44,284.13,158.18,381.87,76.34,76.34,175.45,129.97,286.28,149.77.33.06.61.11.93.17h0s0,0,0,0Z"/>
    </g>
  </g>
</svg>